<?xml version="1.0" encoding="utf-8"?>
<!-- Generator: Adobe Illustrator 22.1.0, SVG Export Plug-In . SVG Version: 6.00 Build 0)  -->
<svg version="1.1" id="레이어_1" xmlns="http://www.w3.org/2000/svg" xmlns:xlink="http://www.w3.org/1999/xlink" x="0px"
	 y="0px" viewBox="0 0 40 40" style="enable-background:new 0 0 40 40;" xml:space="preserve">
<style type="text/css">
	.st0{opacity:0.3;}
	.st1{fill:#FFFFFF;}
</style>
<g class="st0">
	<polygon class="st1" points="7,21.4 10.7,21.4 8.9,16.5 	"/>
	<path class="st1" d="M20,0.1C9,0.1,0.1,9,0.1,20S9,39.9,20,39.9c11,0,19.9-8.9,19.9-19.9S31,0.1,20,0.1z M15.1,26.5
		c-0.1,0.1-0.2,0.1-0.4,0.1h-1.7c-0.1,0-0.2,0-0.3,0c-0.1,0-0.1-0.1-0.2-0.2l-1.1-2.8H6.2l-1.1,2.8C5.1,26.4,5,26.5,5,26.5
		c-0.1,0-0.2,0-0.3,0H3c-0.2,0-0.3,0-0.4-0.1s-0.1-0.2,0-0.3l5-12.4c0.1-0.2,0.2-0.3,0.4-0.3h1.7c0.1,0,0.2,0,0.3,0.1
		c0,0,0.1,0.1,0.2,0.2l4.9,12.4C15.2,26.3,15.2,26.4,15.1,26.5z M27.1,25.4c0,0.2,0,0.4-0.1,0.5c-0.1,0.1-0.1,0.2-0.3,0.2
		c-0.2,0.1-0.5,0.2-0.8,0.3c-0.3,0.1-0.7,0.1-1,0.2c-0.4,0.1-0.7,0.1-1.1,0.1c-0.4,0-0.7,0-1,0c-1,0-1.8-0.2-2.7-0.5
		c-0.8-0.3-1.5-0.7-2.1-1.3c-0.6-0.6-1-1.3-1.4-2.1c-0.3-0.8-0.5-1.8-0.5-2.9c0-1,0.2-1.9,0.5-2.7c0.3-0.8,0.8-1.5,1.3-2.2
		c0.6-0.6,1.3-1.1,2.1-1.4c0.8-0.3,1.7-0.5,2.8-0.5c0.7,0,1.3,0,1.9,0.1s1.1,0.2,1.6,0.4c0.2,0.1,0.3,0.1,0.3,0.2c0,0.1,0,0.1,0,0.2
		l-0.3,1.5c0,0.2-0.1,0.3-0.1,0.3c-0.1,0-0.2,0-0.4-0.1c-0.5-0.2-1-0.3-1.5-0.4s-1-0.1-1.5-0.1c-0.6,0-1.2,0.1-1.7,0.3
		c-0.5,0.2-1,0.5-1.3,1c-0.4,0.4-0.7,0.9-0.9,1.5c-0.2,0.6-0.3,1.2-0.3,1.9c0,0.7,0.1,1.4,0.3,2c0.2,0.6,0.5,1.1,0.9,1.5
		c0.4,0.4,0.8,0.7,1.4,0.9c0.5,0.2,1.1,0.3,1.7,0.3c0.4,0,0.8,0,1.2,0c0.3,0,0.6-0.1,0.8-0.1v-3.2h-2.6c-0.2,0-0.3-0.1-0.3-0.3v-1.5
		c0-0.2,0.1-0.3,0.4-0.3h4.4c0.3,0,0.4,0,0.5,0.1s0.1,0.2,0.1,0.4V25.4z M37.3,26.5c0,0.1-0.1,0.1-0.3,0.1h-6.2
		c-0.3,0-0.4,0-0.5-0.1c-0.1-0.1-0.1-0.2-0.1-0.5V14c0-0.3,0-0.4,0.1-0.5s0.2-0.1,0.5-0.1h6.1c0.2,0,0.3,0,0.3,0.1s0,0.2,0,0.3v1.3
		c0,0.2,0,0.3-0.1,0.3s-0.1,0.1-0.3,0.1h-4.3v3.2h4.1c0.2,0,0.3,0,0.3,0.1c0,0.1,0,0.2,0,0.3v1.3c0,0.2,0,0.3-0.1,0.3
		c0,0.1-0.1,0.1-0.3,0.1h-4.1v3.5H37c0.2,0,0.3,0,0.3,0.1c0,0.1,0,0.2,0,0.3v1.3C37.4,26.3,37.3,26.4,37.3,26.5z"/>
</g>
</svg>
