<?xml version="1.0" encoding="utf-8"?>
<!-- Generator: Adobe Illustrator 22.1.0, SVG Export Plug-In . SVG Version: 6.00 Build 0)  -->
<svg version="1.1" id="레이어_1" xmlns="http://www.w3.org/2000/svg" xmlns:xlink="http://www.w3.org/1999/xlink" x="0px"
	 y="0px" viewBox="0 0 40 40" style="enable-background:new 0 0 40 40;" xml:space="preserve">
<style type="text/css">
	.st0{opacity:0.3;}
	.st1{fill:#FFFFFF;}
</style>
<g class="st0">
	<path class="st1" d="M3.5,30.9c3.5,5.4,9.6,8.9,16.5,8.9s13-3.6,16.5-8.9H3.5z"/>
	<path class="st1" d="M20,0.2C9.1,0.2,0.2,9.1,0.2,20c0,2.7,0.5,5.2,1.5,7.5h36.6c0.9-2.3,1.5-4.8,1.5-7.5C39.8,9.1,30.9,0.2,20,0.2
		z M11,14.6c-1.4,3.2-1.4,5.5-0.9,8.8c0.2,0.9-3.2,1.4-3.3,0.6c-0.6-3.8-0.7-6.8,1.1-10.7c1.2-2.6,3.4-4.6,6.3-5.8
		c2.5-1,5.5-0.9,7.9-0.9h0.6c0.9,0,0.9,3.4-0.1,3.4H22c-2.2-0.1-4.8-0.1-6.6,0.6C13.3,11.4,11.8,12.9,11,14.6z M28.1,12.7l-5.8,6.6
		l0,0c0.1,0.3,0.1,0.5,0.1,0.8c0,1.4-1.2,2.6-2.6,2.6s-2.6-1.2-2.6-2.6s1.2-2.6,2.6-2.6h0.1c0-0.1,0.1-0.1,0.1-0.2l5.8-6.6
		c0.3-0.4,1-0.4,1.4-0.1l0.8,0.7C28.4,11.7,28.4,12.3,28.1,12.7z M33.2,19.5c0,0.8-0.6,1.4-1.4,1.4c-0.8,0-1.4-0.6-1.4-1.3
		c-0.1-0.8-0.2-1.7-0.3-2.5c-0.1-0.7-0.3-1.5,0.1-2.2c0.4-0.6,1-1.4,1.8-0.9C33.5,15,33.2,18,33.2,19.5z"/>
</g>
</svg>
