<?xml version="1.0" encoding="utf-8"?>
<!-- Generator: Adobe Illustrator 22.1.0, SVG Export Plug-In . SVG Version: 6.00 Build 0)  -->
<svg version="1.1" id="레이어_1" xmlns="http://www.w3.org/2000/svg" xmlns:xlink="http://www.w3.org/1999/xlink" x="0px"
	 y="0px" viewBox="0 0 40 40" style="enable-background:new 0 0 40 40;" xml:space="preserve">
<style type="text/css">
	.st0{opacity:0.3;fill:#FFFFFF;enable-background:new    ;}
</style>
<path class="st0" d="M11.2,3.8L8.4,0.9c-4.8,3.6-7.9,9.2-8.2,15.6h4C4.5,11.3,7.2,6.7,11.2,3.8z M35.8,16.5h4
	c-0.3-6.4-3.4-12-8.2-15.6l-2.8,2.8C32.8,6.7,35.5,11.3,35.8,16.5z M31.9,17.5c0-6.1-3.3-11.2-8.9-12.5V3.6c0-1.6-1.3-3-3-3
	c-1.6,0-3,1.3-3,3V5c-5.7,1.4-8.9,6.4-8.9,12.5v9.9l-4,4v2h31.8v-2l-4-4C31.9,27.4,31.9,17.5,31.9,17.5z M20,39.4
	c0.3,0,0.5,0,0.8-0.1c1.3-0.3,2.3-1.2,2.9-2.3c0.2-0.5,0.3-1,0.3-1.5h-8C16,37.6,17.8,39.4,20,39.4z"/>
</svg>
