<?xml version="1.0" encoding="utf-8"?>
<!-- Generator: Adobe Illustrator 22.1.0, SVG Export Plug-In . SVG Version: 6.00 Build 0)  -->
<svg version="1.1" id="Layer_1" xmlns="http://www.w3.org/2000/svg" xmlns:xlink="http://www.w3.org/1999/xlink" x="0px" y="0px"
	 viewBox="0 0 40 40" style="enable-background:new 0 0 40 40;" xml:space="preserve">
<style type="text/css">
	.st0{opacity:0.3;}
	.st1{fill:#FFFFFF;}
</style>
<g class="st0">
	<path class="st1" d="M22.5,32.5h1.2c0.6,0,1.2-0.2,1.2-1.2v-2.5c0-1-0.7-1.2-1.2-1.2h-1.2V32.5z"/>
	<path class="st1" d="M17.5,21.2v2.5c0,1,0.7,1.2,1.2,1.2H20v-5h-1.2C18.2,20,17.5,20.2,17.5,21.2z"/>
	<path class="st1" d="M26.8,11.7c0.4-0.5,0.7-1.1,0.7-1.7c0-1.3-1.1-2.4-2.4-2.5C25.9,7,32.3,2.6,30,0.7c-2.5-2.1-8,2-10,1.8
		c-1.9,0.2-7.5-4-10-1.8c-2.3,2,4.1,6.3,4.9,6.9c-1.3,0-2.4,1.1-2.4,2.5c0,0.7,0.3,1.3,0.7,1.7C6.9,15.1,2.5,23.1,2.5,32.5
		c0,1.7,0.2,3.4,0.4,5c11.1,3.3,22.9,3.3,34,0c0.3-1.6,0.4-3.3,0.4-5C37.5,23.1,33.1,15.1,26.8,11.7z M23.7,25c1.5,0,3.7,1,3.7,3.7
		v2.5c0,2.7-2.2,3.7-3.7,3.7h-1.2v1.2c0,0.7-0.6,1.2-1.2,1.2c-0.7,0-1.2-0.6-1.2-1.2V35h-3.7c-0.7,0-1.2-0.6-1.2-1.2
		c0-0.7,0.6-1.2,1.2-1.2H20v-5h-1.2c-1.5,0-3.7-1-3.7-3.7v-2.5c0-2.7,2.2-3.7,3.7-3.7H20v-1.2c0-0.7,0.6-1.2,1.2-1.2
		c0.7,0,1.2,0.6,1.2,1.2v1.2h3.7c0.7,0,1.2,0.6,1.2,1.2c0,0.7-0.6,1.2-1.2,1.2h-3.7v5L23.7,25L23.7,25z"/>
</g>
</svg>
