<?xml version="1.0" encoding="utf-8"?>
<!-- Generator: Adobe Illustrator 22.1.0, SVG Export Plug-In . SVG Version: 6.00 Build 0)  -->
<svg version="1.1" id="레이어_1" xmlns="http://www.w3.org/2000/svg" xmlns:xlink="http://www.w3.org/1999/xlink" x="0px"
	 y="0px" viewBox="0 0 40 40" style="enable-background:new 0 0 40 40;" xml:space="preserve">
<style type="text/css">
	.st0{opacity:0.3;fill:#FFFFFF;enable-background:new    ;}
</style>
<path class="st0" d="M27.2,18.2c3,0,5.4-2.4,5.4-5.4s-2.4-5.4-5.4-5.4s-5.4,2.4-5.4,5.4S24.2,18.2,27.2,18.2z M12.8,18.2
	c3,0,5.4-2.4,5.4-5.4s-2.4-5.4-5.4-5.4s-5.4,2.4-5.4,5.4S9.8,18.2,12.8,18.2z M12.8,21.8c-4.2,0-12.7,2.1-12.7,6.3v4.5h25.3v-4.5
	C25.4,23.9,17,21.8,12.8,21.8z M27.2,21.8c-0.5,0-1.1,0-1.8,0.1c2.1,1.5,3.6,3.6,3.6,6.2v4.5h10.9v-4.5
	C39.9,23.9,31.4,21.8,27.2,21.8z"/>
</svg>
