<?xml version="1.0" encoding="utf-8"?>
<!-- Generator: Adobe Illustrator 22.1.0, SVG Export Plug-In . SVG Version: 6.00 Build 0)  -->
<svg version="1.1" id="레이어_1" xmlns="http://www.w3.org/2000/svg" xmlns:xlink="http://www.w3.org/1999/xlink" x="0px"
	 y="0px" viewBox="0 0 40 40" style="enable-background:new 0 0 40 40;" xml:space="preserve">
<style type="text/css">
	.st0{opacity:0.3;fill:#FFFFFF;enable-background:new    ;}
</style>
<path class="st0" d="M6.1,39.9V25h-3V14.1c0-2.2,1.8-4,4-4h6c2.2,0,4,1.8,4,4V25h-3v14.9H6.1z M31,39.9V28h6l-5-15.2
	c-0.6-1.6-2.1-2.7-3.8-2.7H28c-1.7,0-3.2,1.1-3.8,2.7L19,28h6v11.9H31z M10.1,8.1c2.2,0,4-1.8,4-4s-1.8-4-4-4s-4,1.8-4,4
	S7.9,8.1,10.1,8.1z M28,8.1c2.2,0,4-1.8,4-4s-1.8-4-4-4s-4,1.8-4,4S25.8,8.1,28,8.1z"/>
</svg>
