<?xml version="1.0" encoding="utf-8"?>
<!-- Generator: Adobe Illustrator 22.1.0, SVG Export Plug-In . SVG Version: 6.00 Build 0)  -->
<svg version="1.1" id="레이어_1" xmlns="http://www.w3.org/2000/svg" xmlns:xlink="http://www.w3.org/1999/xlink" x="0px"
	 y="0px" viewBox="0 0 40 40" style="enable-background:new 0 0 40 40;" xml:space="preserve">
<style type="text/css">
	.st0{opacity:0.3;fill:#FFFFFF;}
</style>
<path class="st0" d="M39.9,18.4c0-2.5-0.5-4.9-1.6-7.1c-1-2.2-2.5-4.2-4.3-5.8c-1.8-1.7-3.9-3-6.3-3.9c-2.4-0.9-5-1.4-7.7-1.4
	c-2.7,0-5.3,0.5-7.7,1.4S7.7,3.8,5.9,5.4c-1.8,1.7-3.2,3.6-4.3,5.8c-1,2.2-1.6,4.6-1.6,7.1c0,1.6,0.2,3.2,0.7,4.6
	c0.4,1.5,1,2.9,1.8,4.2c0.8,1.3,1.7,2.5,2.8,3.6c1.1,1.1,2.3,2.1,3.7,2.9l-3,6.2c4.7-0.2,8.6-0.6,11.8-1.3c3.2-0.6,6.5-1.6,9.8-3
	c3.3-1.4,6-3.3,8-5.8h0c1.3-1.6,2.4-3.3,3.1-5.2C39.5,22.6,39.9,20.5,39.9,18.4z M16,27.3l-8-8l2.8-2.8l5.2,5.1L29.1,8.6l2.8,2.8
	L16,27.3z"/>
</svg>
