<?xml version="1.0" encoding="utf-8"?>
<!-- Generator: Adobe Illustrator 22.1.0, SVG Export Plug-In . SVG Version: 6.00 Build 0)  -->
<svg version="1.1" id="레이어_1" xmlns="http://www.w3.org/2000/svg" xmlns:xlink="http://www.w3.org/1999/xlink" x="0px"
	 y="0px" viewBox="0 0 40 40" style="enable-background:new 0 0 40 40;" xml:space="preserve">
<style type="text/css">
	.st0{opacity:0.3;fill:#FFFFFF;}
</style>
<path class="st0" d="M39,25.7c0-5.2-3.7-9.7-9.2-12.2c0.1-0.1,0.2-0.3,0.3-0.4c0,0,3.3-5.5,3.3-5.5c0.8-1.3,1.6-3.2,1.2-4.9
	c-0.4-1.5-1.4-2.5-2.8-2.6C30.4,0,29,0.2,27.6,0.6C26.8,0.8,26,1,25.1,1c-0.9,0-1.7-0.2-2.5-0.5c-0.2-0.1-0.4-0.1-0.7-0.2
	c-0.3-0.1-0.6-0.2-1-0.3c-0.4,0-0.9,0-1.3,0c-0.3,0-0.5,0-0.8,0.1c-0.7,0.1-1.4,0.2-2.1,0.4C16,0.8,15.2,1,14.3,1
	c-0.9,0-1.7-0.2-2.5-0.5c-0.7-0.2-1.5-0.4-2.4-0.5C8.4,0,7.4,0.2,6.6,0.8C5.4,1.7,5.1,3.2,5.4,4.6c0.2,1,0.7,2.1,1.2,3l3.3,5.5
	c0.1,0.1,0.2,0.3,0.3,0.4C4.7,16,1,20.5,1,25.7c0,0.2,0,0.4,0,0.7c0,0.1,0,0.2,0,0.4v4.9c0,4.6,4.6,8.3,10.3,8.3h17.4
	c5.7,0,10.3-3.7,10.3-8.3v-4.9c0-0.1,0-0.2,0-0.4C39,26.1,39,25.9,39,25.7z M19.4,34.8c-4.7,0-8.5-3.8-8.5-8.5
	c0-4.7,3.8-8.5,8.5-8.5c4.7,0,8.5,3.8,8.5,8.5C27.8,31,24,34.8,19.4,34.8z"/>
<path class="st0" d="M19.4,19.2c-3.9,0-7.1,3.2-7.1,7.1s3.2,7.1,7.1,7.1c3.9,0,7.1-3.2,7.1-7.1S23.3,19.2,19.4,19.2z M23.8,26.7
	c0,0.4-0.3,0.7-0.7,0.7h-2.7l0,2.7c0,0.4-0.3,0.7-0.7,0.7l-0.7,0c-0.4,0-0.7-0.3-0.7-0.7l0-2.7h-2.7c-0.4,0-0.7-0.3-0.7-0.7V26
	c0-0.4,0.3-0.7,0.7-0.7h2.7l0-2.7c0-0.4,0.3-0.7,0.7-0.7l0.7,0c0.4,0,0.7,0.3,0.7,0.7l0,2.7h2.7c0.4,0,0.7,0.3,0.7,0.7V26.7z"/>
</svg>
