<?xml version="1.0" encoding="utf-8"?>
<!-- Generator: Adobe Illustrator 22.1.0, SVG Export Plug-In . SVG Version: 6.00 Build 0)  -->
<svg version="1.1" id="레이어_1" xmlns="http://www.w3.org/2000/svg" xmlns:xlink="http://www.w3.org/1999/xlink" x="0px"
	 y="0px" viewBox="0 0 40 40" style="enable-background:new 0 0 40 40;" xml:space="preserve">
<style type="text/css">
	.st0{opacity:0.3;}
	.st1{fill:#FFFFFF;}
</style>
<g class="st0">
	<path class="st1" d="M20,0.2c2.7,0,5.3,0.5,7.7,1.6c2.4,1,4.5,2.5,6.3,4.2c1.8,1.8,3.2,3.9,4.2,6.3c1,2.4,1.6,5,1.6,7.7
		c0,2.8-0.5,5.3-1.6,7.7c-1,2.4-2.5,4.5-4.2,6.3c-1.8,1.8-3.9,3.2-6.3,4.2c-2.4,1-5,1.6-7.7,1.6s-5.3-0.5-7.7-1.6
		c-2.4-1-4.5-2.5-6.3-4.2c-1.8-1.8-3.2-3.9-4.2-6.3c-1-2.4-1.6-5-1.6-7.7c0-2.7,0.5-5.3,1.6-7.7C2.8,9.9,4.2,7.8,6,6
		c1.8-1.8,3.9-3.2,6.3-4.2C14.7,0.7,17.3,0.2,20,0.2z M22,16h-5.9v2H18v11.9h4V16L22,16z M21.4,13.5c0.4-0.4,0.6-0.8,0.6-1.4
		c0-0.6-0.2-1-0.6-1.4c-0.4-0.4-0.9-0.6-1.4-0.6s-1,0.2-1.4,0.6c-0.4,0.4-0.6,0.9-0.6,1.4c0,0.5,0.2,1,0.6,1.4
		C19,13.8,19.4,14,20,14S21,13.8,21.4,13.5z"/>
</g>
</svg>
